<?xml version="1.0" encoding="utf-8"?>
<!-- Uploaded to: SVG Repo, www.svgrepo.com, Generator: SVG Repo Mixer Tools -->
<svg xmlns="http://www.w3.org/2000/svg" xmlns:xlink="http://www.w3.org/1999/xlink" version="1.1" id="lightingboltcloud"  viewBox="0 0 204 197.4596" enable-background="new 0 0 204 197.4596" xml:space="preserve" width="512" height="512">
<g>
	<path fill="#5CB0FF" d="M162,60l-0.6367,0.0039c-0.4922,0.002-0.9766,0.0039-1.4688-0.0059C157.7266,59.9414,156,58.168,156,56   c0-26.4668-22.4297-48-50-48C84.1016,8,64.9414,21.4531,58.3281,41.4746c-0.5859,1.7812-2.3477,2.918-4.1875,2.7266   C52.7773,44.0684,51.3945,44,50,44C26.8398,44,8,62.8418,8,86s18.8398,42,42,42l0.6484-0.0039l9.7507,0.0032L92.2734,46.543   c0.7031-1.791,2.5781-2.832,4.4688-2.4727C98.6328,44.4258,100,46.0762,100,48v60.0977h40c1.3711,0,2.6484,0.7031,3.3789,1.8613   c0.7344,1.1602,0.8242,2.6133,0.2344,3.8535l-6.7285,14.1865c10.4316-0.0071,27.0879-0.0498,27.0879-0.0498   C181.8477,127.0234,196,112.1094,196,94C196,75.252,180.7461,60,162,60z"/>
	<path fill="#D0E8FF" d="M133.6758,116.0977H96c-2.2109,0-4-1.791-4-4V69.1992L65.8594,136H104c2.2109,0,4,1.791,4,4v30.2324   L133.6758,116.0977z"/>
	<path fill="#1C71DA" d="M163.8555,52.041C161.7461,23.002,136.6016,0,106,0C81.7227,0,60.3281,14.3555,51.793,36.0312   C51.1992,36.0098,50.6016,36,50,36C22.4297,36,0,58.4297,0,86s22.4297,50,50,50h7.2686l-0.9951,2.543   c-0.4805,1.2305-0.3242,2.6191,0.4219,3.7129C57.4414,143.3477,58.6797,144,60,144h40v44c0,1.8711,1.2969,3.4922,3.1211,3.9023   C103.4141,191.9688,103.7109,192,104,192c1.5195,0,2.9414-0.8672,3.6133-2.2852l25.5725-53.917   c0.3279,0.0869,0.6462,0.2021,1.0017,0.2021c9.9414,0,29.8086-0.0508,30.0039-0.0566C186.5117,134.7949,204,116.3711,204,94   C204,71.4629,186.1562,53.0156,163.8555,52.041z M104,136H65.8594L92,69.1992v42.8984c0,2.209,1.7891,4,4,4h37.6758L108,170.2324   V140C108,137.791,106.2109,136,104,136z M163.9727,127.9492c0,0-16.6562,0.0427-27.0879,0.0498l6.7285-14.1865   c0.5898-1.2402,0.5-2.6934-0.2344-3.8535c-0.7305-1.1582-2.0078-1.8613-3.3789-1.8613h-40V48c0-1.9238-1.3672-3.5742-3.2578-3.9297   c-1.8906-0.3594-3.7656,0.6816-4.4688,2.4727l-31.8743,81.4563l-9.7507-0.0032L50,128c-23.1602,0-42-18.8418-42-42   s18.8398-42,42-42c1.3945,0,2.7773,0.0684,4.1406,0.2012c1.8398,0.1914,3.6016-0.9453,4.1875-2.7266   C64.9414,21.4531,84.1016,8,106,8c27.5703,0,50,21.5332,50,48c0,2.168,1.7266,3.9414,3.8945,3.998   c0.4922,0.0098,0.9766,0.0078,1.4688,0.0059L162,60c18.7461,0,34,15.252,34,34C196,112.1094,181.8477,127.0234,163.9727,127.9492z"/>
</g>
<path fill="#FF5D5D" d="M172.3854,26.8322c-1.0234,0-2.0469-0.3906-2.8281-1.1714c-1.5625-1.5625-1.5625-4.0952,0-5.6572  l14.1426-14.1421c1.5605-1.5615,4.0938-1.5615,5.6562,0c1.5625,1.5625,1.5625,4.0952,0,5.6572l-14.1426,14.1421  C174.4332,26.4415,173.4088,26.8322,172.3854,26.8322z"/>
<path fill="#FF5D5D" d="M186.528,26.8322c-1.0234,0-2.0469-0.3906-2.8281-1.1714l-14.1426-14.1421  c-1.5625-1.562-1.5625-4.0947,0-5.6572c1.5605-1.5615,4.0938-1.5615,5.6562,0l14.1426,14.1421c1.5625,1.562,1.5625,4.0947,0,5.6572  C188.5758,26.4415,187.5514,26.8322,186.528,26.8322z"/>
<path fill="#00D40B" d="M162.3854,174.8322c-7.7197,0-14-6.2803-14-14s6.2803-14,14-14s14,6.2803,14,14  S170.1051,174.8322,162.3854,174.8322z M162.3854,154.8322c-3.3086,0-6,2.6914-6,6s2.6914,6,6,6s6-2.6914,6-6  S165.694,154.8322,162.3854,154.8322z"/>
<path fill="#FFC504" d="M27.6989,197.4596c-1.0605,0-2.0781-0.4214-2.8281-1.1719l-11.3135-11.314  c-1.5625-1.562-1.5625-4.0942,0-5.6567l11.3135-11.3135c1.5605-1.5615,4.0957-1.5615,5.6562,0l11.3135,11.3135  c1.5625,1.5625,1.5625,4.0947,0,5.6567l-11.3135,11.314C29.777,197.0382,28.7594,197.4596,27.6989,197.4596z M22.0426,182.1456  l5.6562,5.6572l5.6562-5.6572l-5.6562-5.6567L22.0426,182.1456z"/>
</svg>